# xmcd CD database file
#
# Track frame offsets:
#	150
#	17655
#	35370
#	54530
#	72770
#
# Disc length: 1170 seconds
#
# Revision: 0
# Processed by: cddbd v1.5.1PL0 Copyright (c) Steve Scherf et al.
# Submitted via: CDex 1.51
#
DISCID=38049005
DTITLE=大日本意識革命軍 狂暴 - 人間山脈
DYEAR=2002
DGENRE=Rock
TTITLE0=熱血時代
TTITLE1=九段ノ櫻ノ声ヲ聞ケ
TTITLE2=雪ト少女トノアノ頃ノ僕
TTITLE3=人間山脈
TTITLE4=大原 旭日ノ御飯行進曲
EXTD=YEAR: 2002
EXTT0=
EXTT1=
EXTT2=
EXTT3=
EXTT4=
PLAYORDER=
